<svg xmlns="http://www.w3.org/2000/svg" viewBox="0 0 276.7 330.5"><path fill="#f3e0cd" d="M148.4 199.2s-3.3-5.4-14.4-10.9-12-4.4-30.2-11.5-41-15.6-41.8-18 3.5-7.7 16.5-15.6 15.9-11.4 34.1-14.8c11.6-2.2 20.7-2.3 29.7-2.4 4.8 0 9.7-.8 15-.7 14.5-3.4 16-7 13.8-10s-20.1.3-22.7-1.5 3.8-4.1 12.2-6.5 13.8-1 21.7-2.4 6.2-4 2.6-6-15.1-2-17-2.4-4.8-1.3-3.7-2.7 3.5-3.5 6-3.6 6.5 2.5 9.1 0-2.6-6.6-6-7.6-13.4 2.2-16 1.2 1.5-3.7 5.3-5 9.8-1.7 10.6-2.4c1.5-1.2 2.7-4.7 1.5-5.3s-10.4-2.7-23.3 3-28.3 19.7-28.3 19.7-3 4.7-29.4 15.2-50.4 14.6-74.1 26.2-23.5 29.5-12 42.3 12.5 14.3 37.4 29 52.2 34.7 78 33z"/><path fill="#feed00" d="M251.2 288.3V199s-31.7 1.6-44 0-64.4-11.4-68.3-7.4-25.7 36.8-38.8 60-16.4 36.7-16.4 36.7z"/><path fill="#f6dcc3" d="M152.9 215.8c-7-1.7-1.8-9.4-1.7-18.7 0 0 1.2-13.3-3.3-25.5-3.5-9.6-12.9-21-13.6-24.5a4.4 4.4 0 01.8-3.8c2.6-3.8 6.2-4 11.2-9.2 2.6-2.7 6.1-11 8.8-12.6 2-1.3 2-2.8 4-5.3 1.2-1.6 8.3-1.8 10.6-3.7 1-1 .6-2.6 1.8-4a59.6 59.6 0 0112.9-10.9c6.4-3.9 12.2-6.7 22-4.4s26.1 13 26.1 13l-17.3 69.1s-12.8 24.5-14.7 25.4c-1.7.8-36.9 15.2-46.3 15.2a5.5 5.5 0 01-1.3-.1z"/><g transform="rotate(12 1656 163.6)"><g fill="#fff"><path d="M208.4 581.5a22.2 22.2 0 01-22.4-22.4 22.2 22.2 0 016.6-15.8 20 20 0 0032.3.8 22.2 22.2 0 01-.7 30.9 22.2 22.2 0 01-15.8 6.5z"/><path fill="#313131" d="M208.4 580.5a21.3 21.3 0 0021.4-21.4c0-5-1.7-9.7-4.9-13.5a21 21 0 01-32.4-.8 21.3 21.3 0 00.8 29.5c4 4 9.4 6.2 15 6.2m0 2a23.2 23.2 0 01-23.3-23.4 23.2 23.2 0 017.8-17.4 19 19 0 0032 .7 23.2 23.2 0 01.1 33.3 23.2 23.2 0 01-16.5 6.8z"/></g><path fill="#313131" d="M208.4 573.1a13.5 13.5 0 01-9.8-4.3 15 15 0 01-4.1-10.4 15.3 15.3 0 014.1-10.4s6.1 4.1 10.2 4.1c3 0 9.8-3.6 10.3-3a14.7 14.7 0 013.2 9.3 15 15 0 01-4 10.4 13.5 13.5 0 01-10 4.3z"/><circle cx="2.5" cy="2.5" r="2.5" fill="#fff" transform="translate(212.8 553.5)"/><g fill="#fff"><path d="M213.1 588a6.2 6.2 0 01-6.2-6c0-.9.6-3.1 4.2-8.9l3.2-5c1.9 4 5 11.2 5 13.8 0 3.4-2.8 6.2-6.2 6.2z"/><path fill="#313131" d="M214.2 570.2l-2.3 3.5c-3.8 6-4 8-4 8.2a5.2 5.2 0 0010.4 0c0-.6-.3-2.7-2.8-8.5l-1.3-3.2m.3-4s5.8 11.8 5.8 15.7a7.2 7.2 0 01-14.4 0c0-4 8.6-15.7 8.6-15.7z"/></g></g><path fill="#f2f2f2" d="M71.6 32.2v-8.9L98 0l13.3 3.2L155 60.8v10.4l20.5 36.6-11.7 9.7-24.1-23-6-4.4h-9.3z"/><path fill="#feed01" d="M71.6 32.2l51.2-13.9 32 42.5v10.4l20.6 36.6-11.7 9.7-24.1-23-6-4.4h-9.3z" opacity=".7"/><path fill="#2e2e41" d="M199 92.3c1.2-1.4 8.9-4 16.6-1.6s12.2 3.5 22.8 12.4 11.4 10.8 17.8 23.9c5.2 10.4 4.4 28.4 4.6 35.4s2.8 8.8 4.9 11.5c2.5 4.2 2.7 11.9 5.9 19.9 5 12.7 2.9 12 4.1 25 .8 8.5-1 12-1.2 16.3-.1 2 2.5 6.2 2 11-.3 3.3.6 8 0 11.4-.6 3.7-.4 2-2 6.4s-3.6 9.5-4.6 11a115 115 0 01-9.8 12.3c-4.3 5-14.5 4.7-18.5 0s1.1-9.8 2.4-18.5 1.5-9.9 1.6-15.5 2-7.1-2.6-13.4-8.7-6.4-14.4-12.6-5.6-7.8-7.5-13-5.4-7.3-10.5-8.7-9-7.6-10.3-11.7 2.2-12.3 6-18.3 1.5-10.9 5.2-21.9 6.3-13.2 9.6-22 3.3-7.2 3.3-13.7.4-6.8-3.3-12.4-7.3-6.3-10.5-9.2-13-2.6-11.7-4z"/><path fill="#212121" d="M72.8 295.8a10.2 10.2 0 014.3.9 7 7 0 013 2.4 6.2 6.2 0 011 3.6 6.4 6.4 0 01-1 3.6 7.6 7.6 0 01-2.8 2.5 9.1 9.1 0 013.7 3 6.8 6.8 0 011.3 4 6.7 6.7 0 01-1.1 3.9 7.6 7.6 0 01-3.2 2.6 11.1 11.1 0 01-4.7 1H58.9v-27.5zm-1.5 11a4 4 0 002.7-.8 2.7 2.7 0 001-2.2 2.7 2.7 0 00-1-2.1 4 4 0 00-2.7-.9h-6.6v6zm1 11.4a4.4 4.4 0 002.8-.9 3 3 0 001.2-2.4 3 3 0 00-1.2-2.4 4.4 4.4 0 00-2.9-1h-7.5v6.7zm23.7 5.6a11.3 11.3 0 01-5.6-1.5 11 11 0 01-4.1-4 10.2 10.2 0 01-1.6-5.4 10.1 10.1 0 011.6-5.4 11.1 11.1 0 014-4 11.3 11.3 0 015.7-1.4 11.3 11.3 0 015.7 1.5 11.1 11.1 0 014 4 10.1 10.1 0 011.6 5.3 10.2 10.2 0 01-1.5 5.4 11 11 0 01-4.1 4 11.3 11.3 0 01-5.7 1.5zm0-5a5.4 5.4 0 002.9-.8 5.8 5.8 0 002-2.1 6 6 0 00.8-3 5.9 5.9 0 00-.8-3 5.8 5.8 0 00-2-2 5.4 5.4 0 00-2.9-.9 5.4 5.4 0 00-2.8.8A5.8 5.8 0 0091 310a5.9 5.9 0 00-.8 3 6 6 0 00.8 2.9 5.8 5.8 0 002 2.1 5.4 5.4 0 003 .8zm26.5 3.2a7.4 7.4 0 01-2.2 1.3 6.9 6.9 0 01-2.5.5 6 6 0 01-4.5-1.8 6.2 6.2 0 01-1.8-4.6v-10h-2.8v-4.8h2.8v-5.7h5.7v5.7h4.5v4.7h-4.5v9.2a2.5 2.5 0 00.5 1.7 1.8 1.8 0 001.4.6 3.4 3.4 0 001.2-.1 2.2 2.2 0 00.8-.5zm15.8 0a7.4 7.4 0 01-2.2 1.3 6.9 6.9 0 01-2.5.5 6 6 0 01-4.5-1.8 6.2 6.2 0 01-1.8-4.6v-10h-2.8v-4.8h2.8v-5.7h5.7v5.7h4.5v4.7H133v9.2a2.5 2.5 0 00.5 1.7 1.8 1.8 0 001.4.6 3.4 3.4 0 001.2-.1 2.2 2.2 0 00.8-.5zm3.5-26.7h5.9v28h-5.9zm32.3 5.8H159v5.5h13.8v5.3h-13.8v6h15.2v5.4H153v-27.5H174zm9.5 29.4a11 11 0 01-2.7-.4 10.8 10.8 0 01-2.4-.9l1.2-4a9.5 9.5 0 001.5.7 4 4 0 001.2.2 3.2 3.2 0 001.5-.3 2.6 2.6 0 001.1-1.1l.6-1.2-8.6-20.9h6l5.5 14.5 5-14.5h6l-8.4 21.7a11 11 0 01-3.1 4.6 6.7 6.7 0 01-4.4 1.6zm26.5-11.3a8.1 8.1 0 002.9-.5 7.6 7.6 0 002.5-1.5l3.2 3.4a9.6 9.6 0 01-3.7 2.3 13.5 13.5 0 01-4.7.9 11.4 11.4 0 01-5.6-1.4 10.5 10.5 0 01-4-4 10.7 10.7 0 01-1.5-5.5 10.8 10.8 0 011.4-5.5 10.3 10.3 0 014-3.9 10.8 10.8 0 015.4-1.4 10.2 10.2 0 015.5 1.5 9.4 9.4 0 013.6 4.3 16.2 16.2 0 011.3 6.6h-15.6a6 6 0 001.8 3.4 5 5 0 003.5 1.3zm0-12.6a5 5 0 00-3.4 1.2 5.8 5.8 0 00-1.9 3.2h10a5.6 5.6 0 00-1.6-3.2 4.4 4.4 0 00-3.2-1.2z"/></svg>